<svg width="14" height="15" viewBox="0 0 14 15" fill="none" xmlns="http://www.w3.org/2000/svg">
<g clip-path="url(#clip0_58_4024)">
<path d="M1.5 2.65635C1.23478 2.65635 0.98043 2.76141 0.792893 2.94842C0.605357 3.13543 0.5 3.38907 0.5 3.65354V12.6282C0.5 12.8927 0.605357 13.1463 0.792893 13.3333C0.98043 13.5203 1.23478 13.6254 1.5 13.6254H12.5C12.7652 13.6254 13.0196 13.5203 13.2071 13.3333C13.3946 13.1463 13.5 12.8927 13.5 12.6282V3.65354C13.5 3.38907 13.3946 3.13543 13.2071 2.94842C13.0196 2.76141 12.7652 2.65635 12.5 2.65635H10.5M0.5 6.64509H13.5M3.5 0.661987V4.65072M10.5 0.661987V4.65072M3.5 2.65635H8.5" stroke="black" stroke-linecap="round" stroke-linejoin="round"/>
</g>
<defs>
<clipPath id="clip0_58_4024">
<rect width="14" height="13.9606" fill="white" transform="translate(0 0.163391)"/>
</clipPath>
</defs>
</svg>
