<svg width="88" height="21" viewBox="0 0 88 21" fill="none" xmlns="http://www.w3.org/2000/svg">
<path fill-rule="evenodd" clip-rule="evenodd" d="M1.5 3.00004C1.5 3.00004 7.5 4.00004 9 3.00004C10.5 2.00004 14.4 4.80004 14 8.00004C13.5 12 11 14 8 14C5.6 14 5 14.3334 5 14.5L5.5 19.5H1V3.00004H1.5ZM8.5 6.50004H5.5V10.5H8.5C9.5 10.5 10 9.50004 10 8.00004C10 6.80004 9 6.50004 8.5 6.50004Z" fill="white"/>
<path fill-rule="evenodd" clip-rule="evenodd" d="M16 3.00004C17.6667 2.83337 21.4 2.60004 23 3.00004C25 3.50004 28.5 5.50005 28.5 7.50005C28.5 9.50005 26.5 13.5 25.5 13.5C24.7 13.5 27.8333 17.5 29.5 19.5H24.5L21.5 14H19.5V19.5L15.5 19.5L16 3.00004ZM23 6.50005H20H19.5V10.5H21.5C23 10.5 24 10 24.5 8.50005C24.9 7.30005 23.6667 6.66671 23 6.50005Z" fill="white"/>
<path d="M53 3.00005H57V15.5C57.6667 15.6667 59.3 16 60.5 16C62 16 64 15.5 64.5 15.5C64.9 15.5 65 18.1667 65 19.5H53C53.1667 16.3334 53.5 9.70005 53.5 8.50005C53.5 7.00005 51.5 4.50005 52 4.00005L53 3.00005Z" fill="white"/>
<path d="M66.5 3.00005C67 3.16671 68.1 3.50005 68.5 3.50005C68.9 3.50005 70 3.16671 70.5 3.00005V19.5H66.5V3.00005Z" fill="white"/>
<path d="M72 19.5V3.00005C73 3.33338 75.1 3.80005 75.5 3.00005C75.9 2.20005 80.6667 9.00005 83 12.5V3.00005C82.6667 2.83338 82.3 2.60005 83.5 3.00005C84.7 3.40005 86.3333 3.16671 87 3.00005V19.5H83L76 9.50005V19.5H72Z" fill="white"/>
<path d="M8.5 10.5C9.5 10.5 10 9.50004 10 8.00004C10 6.80004 9 6.50004 8.5 6.50004H5.5V10.5M8.5 10.5C7.7 10.5 6.16667 10.5 5.5 10.5M8.5 10.5H5.5M21.5 10.5C23 10.5 24 10 24.5 8.50005C24.9 7.30005 23.6667 6.66671 23 6.50005H20H19.5V10.5M21.5 10.5C20.3 10.5 19.6667 10.5 19.5 10.5M21.5 10.5H19.5M53 3.00005H57V15.5C57.6667 15.6667 59.3 16 60.5 16C62 16 64 15.5 64.5 15.5C64.9 15.5 65 18.1667 65 19.5H53C53.1667 16.3334 53.5 9.70005 53.5 8.50005C53.5 7.00005 51.5 4.50005 52 4.00005M53 3.00005C52.8333 3.16671 52.4 3.60005 52 4.00005M53 3.00005L52 4.00005M1.5 3.00004C1.5 3.00004 7.5 4.00004 9 3.00004C10.5 2.00004 14.4 4.80004 14 8.00004C13.5 12 11 14 8 14C5.6 14 5 14.3334 5 14.5L5.5 19.5H1V3.00004H1.5ZM16 3.00004C17.6667 2.83337 21.4 2.60004 23 3.00004C25 3.50004 28.5 5.50005 28.5 7.50005C28.5 9.50005 26.5 13.5 25.5 13.5C24.7 13.5 27.8333 17.5 29.5 19.5H24.5L21.5 14H19.5V19.5L15.5 19.5L16 3.00004ZM66.5 3.00005C67 3.16671 68.1 3.50005 68.5 3.50005C68.9 3.50005 70 3.16671 70.5 3.00005V19.5H66.5V3.00005ZM72 19.5V3.00005C73 3.33338 75.1 3.80005 75.5 3.00005C75.9 2.20005 80.6667 9.00005 83 12.5V3.00005C82.6667 2.83338 82.3 2.60005 83.5 3.00005C84.7 3.40005 86.3333 3.16671 87 3.00005V19.5H83L76 9.50005V19.5H72Z" stroke="white"/>
<mask id="mask0_27_2234" style="mask-type:alpha" maskUnits="userSpaceOnUse" x="30" y="0" width="22" height="21">
<circle cx="41" cy="10.5" r="10.5" fill="white"/>
</mask>
<g mask="url(#mask0_27_2234)">
<circle cx="33.5" cy="13" r="5" fill="white"/>
<path d="M52.5 17.5C52.5 20.2614 50.2614 22.5 47.5 22.5C44.7386 22.5 42.5 20.2614 42.5 17.5C42.5 14.7386 44.7386 12.5 47.5 12.5C50.2614 12.5 52.5 14.7386 52.5 17.5Z" fill="white"/>
<path d="M52.5 17.5C52.5 20.2614 50.2614 22.5 47.5 22.5C44.7386 22.5 42.5 20.2614 42.5 17.5C42.5 14.7386 44.7386 12.5 47.5 12.5C50.2614 12.5 52.5 14.7386 52.5 17.5Z" fill="white"/>
<path d="M48.5 2.5C48.5 4.98528 46.4853 7 44 7C41.5147 7 39.5 4.98528 39.5 2.5C39.5 0.0147185 41.5147 -2 44 -2C46.4853 -2 48.5 0.0147185 48.5 2.5Z" fill="white"/>
<path d="M48.5 2.5C48.5 4.98528 46.4853 7 44 7C41.5147 7 39.5 4.98528 39.5 2.5C39.5 0.0147185 41.5147 -2 44 -2C46.4853 -2 48.5 0.0147185 48.5 2.5Z" fill="white"/>
<path d="M40.5 20C40.5 21.1046 39.6046 22 38.5 22C37.3954 22 36.5 21.1046 36.5 20C36.5 18.8954 37.3954 18 38.5 18C39.6046 18 40.5 18.8954 40.5 20Z" fill="white"/>
<path d="M40.5 20C40.5 21.1046 39.6046 22 38.5 22C37.3954 22 36.5 21.1046 36.5 20C36.5 18.8954 37.3954 18 38.5 18C39.6046 18 40.5 18.8954 40.5 20Z" fill="white"/>
<path d="M50.5 9.5C50.5 10.3284 49.8284 11 49 11C48.1716 11 47.5 10.3284 47.5 9.5C47.5 8.67157 48.1716 8 49 8C49.8284 8 50.5 8.67157 50.5 9.5Z" fill="white"/>
<path d="M50.5 9.5C50.5 10.3284 49.8284 11 49 11C48.1716 11 47.5 10.3284 47.5 9.5C47.5 8.67157 48.1716 8 49 8C49.8284 8 50.5 8.67157 50.5 9.5Z" fill="white"/>
<path d="M42.5 0.5C42.5 2.98528 40.4853 5 38 5C35.5147 5 33.5 2.98528 33.5 0.5C33.5 -1.98528 35.5147 -4 38 -4C40.4853 -4 42.5 -1.98528 42.5 0.5Z" fill="white"/>
<path d="M42.5 0.5C42.5 2.98528 40.4853 5 38 5C35.5147 5 33.5 2.98528 33.5 0.5C33.5 -1.98528 35.5147 -4 38 -4C40.4853 -4 42.5 -1.98528 42.5 0.5Z" fill="white"/>
<path d="M41.5 8.5C41.5 9.32843 40.8284 10 40 10C39.1716 10 38.5 9.32843 38.5 8.5C38.5 7.67157 39.1716 7 40 7C40.8284 7 41.5 7.67157 41.5 8.5Z" fill="white"/>
<path d="M41.5 8.5C41.5 9.32843 40.8284 10 40 10C39.1716 10 38.5 9.32843 38.5 8.5C38.5 7.67157 39.1716 7 40 7C40.8284 7 41.5 7.67157 41.5 8.5Z" fill="white"/>
</g>
</svg>
